<svg width="375" height="812" viewBox="0 0 375 812" fill="none" xmlns="http://www.w3.org/2000/svg">
<rect x="120" y="799" width="135" height="5" rx="2.5" fill="#666666"/>
<path d="M80 0H295C292.931 0.603211 291.484 2.46837 291.414 4.62256L291.384 5.5618C291.384 19.0587 280.442 30 266.946 30H108.054C94.5576 30 83.6162 19.0587 83.6162 5.5618L83.5858 4.62257C83.516 2.46838 82.0692 0.603211 80 0Z" fill="#DCDCE5"/>
<path opacity="0.35" d="M336.5 22C336.5 20.8034 337.47 19.8334 338.667 19.8334H355.333C356.53 19.8334 357.5 20.8034 357.5 22V28C357.5 29.1967 356.53 30.1667 355.333 30.1667H338.667C337.47 30.1667 336.5 29.1967 336.5 28V22Z" fill="white" stroke="#DCDCE5"/>
<path opacity="0.4" d="M359 23.0001V27.0001C359.805 26.6613 360.328 25.8732 360.328 25.0001C360.328 24.1269 359.805 23.3388 359 23.0001Z" fill="white"/>
<path d="M338 22.6667C338 21.9303 338.597 21.3334 339.333 21.3334H354.667C355.403 21.3334 356 21.9303 356 22.6667V27.3334C356 28.0698 355.403 28.6667 354.667 28.6667H339.333C338.597 28.6667 338 28.0698 338 27.3334V22.6667Z" fill="white"/>
<path fill-rule="evenodd" clip-rule="evenodd" d="M323.33 21.608C325.546 21.6081 327.677 22.4596 329.283 23.9863C329.404 24.1042 329.598 24.1027 329.717 23.983L330.873 22.8163C330.933 22.7556 330.967 22.6734 330.966 22.5878C330.966 22.5022 330.931 22.4204 330.87 22.3603C326.655 18.3208 320.005 18.3208 315.79 22.3603C315.729 22.4203 315.694 22.5021 315.694 22.5877C315.693 22.6733 315.727 22.7556 315.787 22.8163L316.943 23.983C317.062 24.1029 317.256 24.1044 317.377 23.9863C318.983 22.4595 321.114 21.608 323.33 21.608ZM323.33 25.4037C324.548 25.4036 325.722 25.8561 326.624 26.6733C326.746 26.7893 326.939 26.7868 327.058 26.6677L328.212 25.501C328.273 25.4398 328.307 25.3568 328.306 25.2705C328.305 25.1843 328.27 25.102 328.208 25.042C325.459 22.4856 321.204 22.4856 318.455 25.042C318.393 25.102 318.358 25.1843 318.357 25.2706C318.356 25.3569 318.39 25.4399 318.451 25.501L319.605 26.6677C319.724 26.7868 319.917 26.7893 320.039 26.6733C320.941 25.8567 322.114 25.4042 323.33 25.4037ZM325.643 27.9575C325.645 28.044 325.611 28.1274 325.549 28.188L323.552 30.2037C323.493 30.2629 323.414 30.2963 323.33 30.2963C323.247 30.2963 323.167 30.2629 323.109 30.2037L321.111 28.188C321.049 28.1274 321.015 28.0439 321.017 27.9574C321.019 27.8709 321.056 27.789 321.121 27.731C322.396 26.6521 324.264 26.6521 325.54 27.731C325.604 27.7891 325.642 27.871 325.643 27.9575Z" fill="white"/>
<path fill-rule="evenodd" clip-rule="evenodd" d="M309.667 19.6666H308.667C308.114 19.6666 307.667 20.1143 307.667 20.6666V29.3333C307.667 29.8856 308.114 30.3333 308.667 30.3333H309.667C310.219 30.3333 310.667 29.8856 310.667 29.3333V20.6666C310.667 20.1143 310.219 19.6666 309.667 19.6666ZM304 22H305C305.552 22 306 22.4477 306 23V29.3333C306 29.8856 305.552 30.3333 305 30.3333H304C303.448 30.3333 303 29.8856 303 29.3333V23C303 22.4477 303.448 22 304 22ZM300.333 24.3333H299.333C298.781 24.3333 298.333 24.781 298.333 25.3333V29.3333C298.333 29.8856 298.781 30.3333 299.333 30.3333H300.333C300.886 30.3333 301.333 29.8856 301.333 29.3333V25.3333C301.333 24.781 300.886 24.3333 300.333 24.3333ZM295.667 26.3333H294.667C294.114 26.3333 293.667 26.781 293.667 27.3333V29.3333C293.667 29.8856 294.114 30.3333 294.667 30.3333H295.667C296.219 30.3333 296.667 29.8856 296.667 29.3333V27.3333C296.667 26.781 296.219 26.3333 295.667 26.3333Z" fill="white"/>
<path d="M37.3207 30.2563C40.0087 30.2563 41.6053 28.1543 41.6053 24.5947C41.6053 23.2544 41.349 22.1265 40.8583 21.2549C40.1478 19.8999 38.9247 19.1675 37.3793 19.1675C35.0795 19.1675 33.4535 20.7129 33.4535 22.8809C33.4535 24.917 34.9183 26.3965 36.9325 26.3965C38.1703 26.3965 39.1737 25.8179 39.6718 24.8145H39.6937C39.6937 24.8145 39.723 24.8145 39.7303 24.8145C39.745 24.8145 39.7963 24.8145 39.7963 24.8145C39.7963 27.2314 38.8807 28.6743 37.3353 28.6743C36.4271 28.6743 35.724 28.1763 35.4823 27.3779H33.6C33.9149 29.1138 35.3871 30.2563 37.3207 30.2563ZM37.3866 24.895C36.1708 24.895 35.3065 24.0308 35.3065 22.8223C35.3065 21.6431 36.2147 20.7422 37.3939 20.7422C38.5731 20.7422 39.4813 21.6577 39.4813 22.8516C39.4813 24.0308 38.5951 24.895 37.3866 24.895Z" fill="white"/>
<path d="M44.6965 30.1538C45.3923 30.1538 45.8683 29.6558 45.8683 28.9966C45.8683 28.3301 45.3923 27.8394 44.6965 27.8394C44.008 27.8394 43.5246 28.3301 43.5246 28.9966C43.5246 29.6558 44.008 30.1538 44.6965 30.1538ZM44.6965 24.6606C45.3923 24.6606 45.8683 24.1699 45.8683 23.5107C45.8683 22.8442 45.3923 22.3535 44.6965 22.3535C44.008 22.3535 43.5246 22.8442 43.5246 23.5107C43.5246 24.1699 44.008 24.6606 44.6965 24.6606Z" fill="white"/>
<path d="M52.7241 30H54.5332V28.0298H55.9614V26.4331H54.5332V19.4312H51.8672C49.9995 22.2437 48.5127 24.5947 47.5605 26.3452V28.0298H52.7241V30ZM49.311 26.3672C50.5415 24.1992 51.6401 22.4634 52.6509 20.9692H52.7534V26.4771H49.311V26.3672Z" fill="white"/>
<path d="M59.99 30H61.8797V19.4312H59.9973L57.2361 21.3647V23.1812L59.8655 21.3354H59.99V30Z" fill="white"/>
<path d="M258.863 689.685C255.896 689.685 253.491 687.293 253.491 684.342C253.491 681.392 255.896 679 258.863 679C261.83 679 264.236 681.392 264.236 684.342C264.236 687.284 261.83 689.685 258.863 689.685Z" stroke="#04D361" stroke-width="2" stroke-miterlimit="10" stroke-linecap="round" stroke-linejoin="round"/>
<path d="M255.157 688.204L251.357 691.973" stroke="#04D361" stroke-width="2" stroke-miterlimit="10" stroke-linecap="round" stroke-linejoin="round"/>
<path d="M248.262 309.005L242.609 314.626" stroke="#04D361" stroke-width="2" stroke-miterlimit="10" stroke-linecap="round" stroke-linejoin="round"/>
<path d="M248.262 314.626L242.609 309.005" stroke="#04D361" stroke-width="2" stroke-miterlimit="10" stroke-linecap="round" stroke-linejoin="round"/>
<path d="M143.01 635L137.357 640.621" stroke="#04D361" stroke-width="2" stroke-miterlimit="10" stroke-linecap="round" stroke-linejoin="round"/>
<path d="M143.01 640.621L137.357 635" stroke="#04D361" stroke-width="2" stroke-miterlimit="10" stroke-linecap="round" stroke-linejoin="round"/>
<path d="M75.7964 313.619L67.8032 313.619" stroke="#04D361" stroke-width="2" stroke-miterlimit="10" stroke-linecap="round" stroke-linejoin="round"/>
<path d="M71.8008 317.603L71.8008 309.645" stroke="#04D361" stroke-width="2" stroke-miterlimit="10" stroke-linecap="round" stroke-linejoin="round"/>
<path d="M207.723 206.305C205.046 206.305 202.866 204.145 202.866 201.474C202.866 198.812 205.037 196.643 207.723 196.643C210.4 196.643 212.581 198.803 212.581 201.474C212.572 204.145 210.4 206.305 207.723 206.305Z" stroke="#04D361" stroke-width="2" stroke-miterlimit="10" stroke-linecap="round" stroke-linejoin="round"/>
<path d="M333.5 490.577C330.823 490.577 328.642 488.417 328.642 485.746C328.642 483.084 330.814 480.915 333.5 480.915C336.177 480.915 338.357 483.075 338.357 485.746C338.348 488.417 336.177 490.577 333.5 490.577Z" stroke="#04D361" stroke-width="2" stroke-miterlimit="10" stroke-linecap="round" stroke-linejoin="round"/>
<path d="M78.215 561.441C75.5381 561.441 73.3573 559.282 73.3573 556.611C73.3573 553.949 75.5287 551.78 78.215 551.78C80.8918 551.78 83.0726 553.939 83.0726 556.611C83.0633 559.282 80.8918 561.441 78.215 561.441Z" stroke="#04D361" stroke-width="2" stroke-miterlimit="10" stroke-linecap="round" stroke-linejoin="round"/>
<path d="M140.708 155.75C140.708 156.716 141.495 157.499 142.467 157.499C143.439 157.499 144.226 156.716 144.226 155.75C144.226 154.784 143.439 154 142.467 154C141.495 154 140.708 154.784 140.708 155.75Z" fill="#DAA520"/>
<path d="M140.708 167.97C140.708 168.937 141.495 169.72 142.467 169.72C143.439 169.72 144.226 168.937 144.226 167.97C144.226 167.004 143.439 166.221 142.467 166.221C141.495 166.221 140.708 167.004 140.708 167.97Z" fill="#DAA520"/>
<path d="M140.708 180.18C140.708 181.146 141.495 181.929 142.467 181.929C143.439 181.929 144.226 181.146 144.226 180.18C144.226 179.214 143.439 178.43 142.467 178.43C141.495 178.43 140.708 179.214 140.708 180.18Z" fill="#DAA520"/>
<path d="M140.708 192.4C140.708 193.366 141.495 194.15 142.467 194.15C143.439 194.15 144.226 193.366 144.226 192.4C144.226 191.434 143.439 190.651 142.467 190.651C141.495 190.651 140.708 191.434 140.708 192.4Z" fill="#DAA520"/>
<path d="M140.708 204.611C140.708 205.577 141.495 206.36 142.467 206.36C143.439 206.36 144.226 205.577 144.226 204.611C144.226 203.645 143.439 202.861 142.467 202.861C141.495 202.861 140.708 203.645 140.708 204.611Z" fill="#DAA520"/>
<path d="M140.708 216.831C140.708 217.797 141.495 218.58 142.467 218.58C143.439 218.58 144.226 217.797 144.226 216.831C144.226 215.864 143.439 215.081 142.467 215.081C141.495 215.081 140.708 215.864 140.708 216.831Z" fill="#DAA520"/>
<path d="M128.428 155.75C128.428 156.716 129.215 157.499 130.187 157.499C131.158 157.499 131.946 156.716 131.946 155.75C131.946 154.783 131.158 154 130.187 154C129.215 154 128.428 154.783 128.428 155.75Z" fill="#DAA520"/>
<path d="M128.428 167.97C128.428 168.936 129.215 169.72 130.187 169.72C131.158 169.72 131.946 168.936 131.946 167.97C131.946 167.004 131.158 166.221 130.187 166.221C129.215 166.221 128.428 167.004 128.428 167.97Z" fill="#DAA520"/>
<path d="M128.428 180.18C128.428 181.146 129.215 181.93 130.187 181.93C131.158 181.93 131.946 181.146 131.946 180.18C131.946 179.214 131.158 178.431 130.187 178.431C129.215 178.431 128.428 179.214 128.428 180.18Z" fill="#DAA520"/>
<path d="M128.428 192.4C128.428 193.367 129.215 194.15 130.187 194.15C131.158 194.15 131.946 193.367 131.946 192.4C131.946 191.434 131.158 190.651 130.187 190.651C129.215 190.651 128.428 191.434 128.428 192.4Z" fill="#DAA520"/>
<path d="M128.428 204.611C128.428 205.577 129.215 206.36 130.187 206.36C131.158 206.36 131.946 205.577 131.946 204.611C131.946 203.645 131.158 202.861 130.187 202.861C129.215 202.861 128.428 203.645 128.428 204.611Z" fill="#DAA520"/>
<path d="M128.428 216.831C128.428 217.797 129.215 218.58 130.187 218.58C131.158 218.58 131.946 217.797 131.946 216.831C131.946 215.864 131.158 215.081 130.187 215.081C129.215 215.081 128.428 215.864 128.428 216.831Z" fill="#DAA520"/>
<path d="M116.138 155.75C116.138 156.716 116.926 157.499 117.898 157.499C118.869 157.499 119.657 156.716 119.657 155.75C119.657 154.783 118.869 154 117.898 154C116.926 154 116.138 154.783 116.138 155.75Z" fill="#DAA520"/>
<path d="M116.138 167.97C116.138 168.936 116.926 169.72 117.898 169.72C118.869 169.72 119.657 168.936 119.657 167.97C119.657 167.004 118.869 166.221 117.898 166.221C116.926 166.221 116.138 167.004 116.138 167.97Z" fill="#DAA520"/>
<path d="M116.138 180.18C116.138 181.146 116.926 181.93 117.898 181.93C118.869 181.93 119.657 181.146 119.657 180.18C119.657 179.214 118.869 178.431 117.898 178.431C116.926 178.431 116.138 179.214 116.138 180.18Z" fill="#DAA520"/>
<path d="M116.138 192.4C116.138 193.367 116.926 194.15 117.898 194.15C118.869 194.15 119.657 193.367 119.657 192.4C119.657 191.434 118.869 190.651 117.898 190.651C116.926 190.651 116.138 191.434 116.138 192.4Z" fill="#DAA520"/>
<path d="M116.138 204.611C116.138 205.577 116.926 206.36 117.898 206.36C118.869 206.36 119.657 205.577 119.657 204.611C119.657 203.645 118.869 202.861 117.898 202.861C116.926 202.861 116.138 203.645 116.138 204.611Z" fill="#DAA520"/>
<path d="M116.138 216.831C116.138 217.797 116.926 218.58 117.898 218.58C118.869 218.58 119.657 217.797 119.657 216.831C119.657 215.864 118.869 215.081 117.898 215.081C116.926 215.081 116.138 215.864 116.138 216.831Z" fill="#DAA520"/>
<path d="M103.859 155.75C103.859 156.716 104.646 157.499 105.618 157.499C106.59 157.499 107.377 156.716 107.377 155.75C107.377 154.783 106.59 154 105.618 154C104.646 154 103.859 154.783 103.859 155.75Z" fill="#DAA520"/>
<path d="M103.859 167.97C103.859 168.936 104.646 169.72 105.618 169.72C106.59 169.72 107.377 168.936 107.377 167.97C107.377 167.004 106.59 166.221 105.618 166.221C104.646 166.221 103.859 167.004 103.859 167.97Z" fill="#DAA520"/>
<path d="M103.859 180.18C103.859 181.146 104.646 181.93 105.618 181.93C106.59 181.93 107.377 181.146 107.377 180.18C107.377 179.214 106.59 178.431 105.618 178.431C104.646 178.431 103.859 179.214 103.859 180.18Z" fill="#DAA520"/>
<path d="M103.859 192.4C103.859 193.367 104.646 194.15 105.618 194.15C106.59 194.15 107.377 193.367 107.377 192.4C107.377 191.434 106.59 190.651 105.618 190.651C104.646 190.651 103.859 191.434 103.859 192.4Z" fill="#DAA520"/>
<path d="M103.859 204.611C103.859 205.577 104.646 206.36 105.618 206.36C106.59 206.36 107.377 205.577 107.377 204.611C107.377 203.645 106.59 202.861 105.618 202.861C104.646 202.861 103.859 203.645 103.859 204.611Z" fill="#DAA520"/>
<path d="M103.859 216.831C103.859 217.797 104.646 218.58 105.618 218.58C106.59 218.58 107.377 217.797 107.377 216.831C107.377 215.864 106.59 215.081 105.618 215.081C104.646 215.081 103.859 215.864 103.859 216.831Z" fill="#DAA520"/>
<path d="M263.267 558.826C263.267 559.792 264.055 560.576 265.026 560.576C265.998 560.576 266.786 559.792 266.786 558.826C266.786 557.86 265.998 557.077 265.026 557.077C264.055 557.077 263.267 557.86 263.267 558.826Z" fill="#DAA520"/>
<path d="M263.268 571.038C263.268 572.004 264.055 572.787 265.027 572.787C265.998 572.787 266.786 572.004 266.786 571.038C266.786 570.071 265.998 569.288 265.027 569.288C264.055 569.288 263.268 570.071 263.268 571.038Z" fill="#DAA520"/>
<path d="M263.268 583.256C263.268 584.222 264.055 585.005 265.027 585.005C265.998 585.005 266.786 584.222 266.786 583.256C266.786 582.29 265.998 581.506 265.027 581.506C264.055 581.506 263.268 582.29 263.268 583.256Z" fill="#DAA520"/>
<path d="M250.978 558.826C250.978 559.792 251.766 560.575 252.738 560.575C253.709 560.575 254.497 559.792 254.497 558.826C254.497 557.859 253.709 557.076 252.738 557.076C251.766 557.076 250.978 557.859 250.978 558.826Z" fill="#DAA520"/>
<path d="M250.978 571.038C250.978 572.004 251.766 572.787 252.738 572.787C253.709 572.787 254.497 572.004 254.497 571.038C254.497 570.071 253.709 569.288 252.738 569.288C251.766 569.288 250.978 570.071 250.978 571.038Z" fill="#DAA520"/>
<path d="M250.978 583.256C250.978 584.222 251.766 585.005 252.738 585.005C253.709 585.005 254.497 584.222 254.497 583.256C254.497 582.29 253.709 581.506 252.738 581.506C251.766 581.506 250.978 582.29 250.978 583.256Z" fill="#DAA520"/>
<path d="M317 301.077C317 302.043 317.788 302.826 318.76 302.826C319.731 302.826 320.519 302.043 320.519 301.077C320.519 300.11 319.731 299.327 318.76 299.327C317.788 299.327 317 300.11 317 301.077Z" fill="#DAA520"/>
<path d="M317 313.287C317 314.253 317.788 315.036 318.76 315.036C319.731 315.036 320.519 314.253 320.519 313.287C320.519 312.321 319.731 311.537 318.76 311.537C317.788 311.537 317 312.321 317 313.287Z" fill="#DAA520"/>
<path d="M317 325.507C317 326.473 317.788 327.256 318.76 327.256C319.731 327.256 320.519 326.473 320.519 325.507C320.519 324.54 319.731 323.757 318.76 323.757C317.788 323.757 317 324.54 317 325.507Z" fill="#DAA520"/>
<path d="M304.711 301.077C304.711 302.043 305.499 302.826 306.47 302.826C307.442 302.826 308.23 302.043 308.23 301.077C308.23 300.11 307.442 299.327 306.47 299.327C305.499 299.327 304.711 300.11 304.711 301.077Z" fill="#DAA520"/>
<path d="M304.711 313.287C304.711 314.253 305.499 315.036 306.47 315.036C307.442 315.036 308.23 314.253 308.23 313.287C308.23 312.321 307.442 311.537 306.47 311.537C305.499 311.537 304.711 312.321 304.711 313.287Z" fill="#DAA520"/>
<path d="M304.711 325.507C304.711 326.473 305.499 327.257 306.47 327.257C307.442 327.257 308.23 326.473 308.23 325.507C308.23 324.541 307.442 323.758 306.47 323.758C305.499 323.758 304.711 324.541 304.711 325.507Z" fill="#DAA520"/>
<path d="M140.707 738.25C140.707 739.216 141.495 740 142.467 740C143.438 740 144.226 739.216 144.226 738.25C144.226 737.284 143.438 736.501 142.467 736.501C141.495 736.501 140.707 737.284 140.707 738.25Z" fill="#DAA520"/>
<path d="M128.418 738.251C128.418 739.217 129.206 740 130.177 740C131.149 740 131.937 739.217 131.937 738.251C131.937 737.284 131.149 736.501 130.177 736.501C129.206 736.501 128.418 737.284 128.418 738.251Z" fill="#DAA520"/>
<path d="M116.138 738.251C116.138 739.217 116.926 740 117.898 740C118.869 740 119.657 739.217 119.657 738.251C119.657 737.284 118.869 736.501 117.898 736.501C116.926 736.501 116.138 737.284 116.138 738.251Z" fill="#DAA520"/>
<path d="M103.849 738.251C103.849 739.217 104.637 740 105.608 740C106.58 740 107.368 739.217 107.368 738.251C107.368 737.284 106.58 736.501 105.608 736.501C104.637 736.501 103.849 737.284 103.849 738.251Z" fill="#DAA520"/>
<path d="M91.5691 738.251C91.5691 739.217 92.3568 740 93.3284 740C94.3001 740 95.0878 739.217 95.0878 738.251C95.0878 737.284 94.3001 736.501 93.3284 736.501C92.3568 736.501 91.5691 737.284 91.5691 738.251Z" fill="#DAA520"/>
<path d="M79.2799 738.251C79.2799 739.217 80.0676 740 81.0393 740C82.0109 740 82.7986 739.217 82.7986 738.251C82.7986 737.284 82.0109 736.501 81.0393 736.501C80.0676 736.501 79.2799 737.284 79.2799 738.251Z" fill="#DAA520"/>
<path d="M66.9999 738.251C66.9999 739.217 67.7876 740 68.7592 740C69.7309 740 70.5186 739.217 70.5186 738.251C70.5186 737.284 69.7309 736.501 68.7592 736.501C67.7876 736.501 66.9999 737.284 66.9999 738.251Z" fill="#DAA520"/>
<path d="M140.707 726.031C140.707 726.997 141.495 727.78 142.467 727.78C143.438 727.78 144.226 726.997 144.226 726.031C144.226 725.065 143.438 724.281 142.467 724.281C141.495 724.281 140.707 725.065 140.707 726.031Z" fill="#DAA520"/>
<path d="M128.418 726.031C128.418 726.997 129.206 727.78 130.177 727.78C131.149 727.78 131.937 726.997 131.937 726.031C131.937 725.065 131.149 724.281 130.177 724.281C129.206 724.281 128.418 725.065 128.418 726.031Z" fill="#DAA520"/>
<path d="M116.138 726.031C116.138 726.997 116.926 727.78 117.898 727.78C118.869 727.78 119.657 726.997 119.657 726.031C119.657 725.065 118.869 724.281 117.898 724.281C116.926 724.281 116.138 725.065 116.138 726.031Z" fill="#DAA520"/>
<path d="M103.849 726.031C103.849 726.997 104.637 727.78 105.608 727.78C106.58 727.78 107.368 726.997 107.368 726.031C107.368 725.065 106.58 724.281 105.608 724.281C104.637 724.281 103.849 725.065 103.849 726.031Z" fill="#DAA520"/>
<path d="M91.5691 726.031C91.5691 726.997 92.3568 727.78 93.3284 727.78C94.3001 727.78 95.0878 726.997 95.0878 726.031C95.0878 725.065 94.3001 724.281 93.3284 724.281C92.3568 724.281 91.5691 725.065 91.5691 726.031Z" fill="#DAA520"/>
<path d="M79.2799 726.031C79.2799 726.997 80.0676 727.78 81.0393 727.78C82.0109 727.78 82.7986 726.997 82.7986 726.031C82.7986 725.065 82.0109 724.281 81.0393 724.281C80.0676 724.281 79.2799 725.065 79.2799 726.031Z" fill="#DAA520"/>
<path d="M66.9999 726.031C66.9999 726.997 67.7876 727.78 68.7592 727.78C69.7309 727.78 70.5186 726.997 70.5186 726.031C70.5186 725.065 69.7309 724.281 68.7592 724.281C67.7876 724.281 66.9999 725.065 66.9999 726.031Z" fill="#DAA520"/>
<path d="M140.707 713.82C140.707 714.786 141.495 715.569 142.467 715.569C143.438 715.569 144.226 714.786 144.226 713.82C144.226 712.854 143.438 712.07 142.467 712.07C141.495 712.07 140.707 712.854 140.707 713.82Z" fill="#DAA520"/>
<path d="M128.418 713.82C128.418 714.786 129.206 715.569 130.177 715.569C131.149 715.569 131.937 714.786 131.937 713.82C131.937 712.854 131.149 712.07 130.177 712.07C129.206 712.07 128.418 712.854 128.418 713.82Z" fill="#DAA520"/>
<path d="M116.138 713.82C116.138 714.786 116.926 715.569 117.898 715.569C118.869 715.569 119.657 714.786 119.657 713.82C119.657 712.854 118.869 712.07 117.898 712.07C116.926 712.07 116.138 712.854 116.138 713.82Z" fill="#DAA520"/>
<path d="M103.849 713.82C103.849 714.786 104.637 715.569 105.608 715.569C106.58 715.569 107.368 714.786 107.368 713.82C107.368 712.854 106.58 712.07 105.608 712.07C104.637 712.07 103.849 712.854 103.849 713.82Z" fill="#DAA520"/>
<path d="M91.5691 713.82C91.5691 714.786 92.3568 715.569 93.3284 715.569C94.3001 715.569 95.0878 714.786 95.0878 713.82C95.0878 712.854 94.3001 712.07 93.3284 712.07C92.3568 712.07 91.5691 712.854 91.5691 713.82Z" fill="#DAA520"/>
<path d="M79.2799 713.82C79.2799 714.786 80.0676 715.569 81.0393 715.569C82.0109 715.569 82.7986 714.786 82.7986 713.82C82.7986 712.854 82.0109 712.07 81.0393 712.07C80.0676 712.07 79.2799 712.854 79.2799 713.82Z" fill="#DAA520"/>
<path d="M66.9999 713.82C66.9999 714.786 67.7876 715.569 68.7592 715.569C69.7309 715.569 70.5186 714.786 70.5186 713.82C70.5186 712.854 69.7309 712.07 68.7592 712.07C67.7876 712.07 66.9999 712.854 66.9999 713.82Z" fill="#DAA520"/>
<path d="M140.706 701.601C140.706 702.567 141.494 703.35 142.466 703.35C143.437 703.35 144.225 702.567 144.225 701.601C144.225 700.634 143.437 699.851 142.466 699.851C141.494 699.851 140.706 700.634 140.706 701.601Z" fill="#DAA520"/>
<path d="M128.418 701.6C128.418 702.566 129.206 703.35 130.177 703.35C131.149 703.35 131.937 702.566 131.937 701.6C131.937 700.634 131.149 699.851 130.177 699.851C129.206 699.851 128.418 700.634 128.418 701.6Z" fill="#DAA520"/>
<path d="M116.138 701.6C116.138 702.566 116.926 703.35 117.898 703.35C118.869 703.35 119.657 702.566 119.657 701.6C119.657 700.634 118.869 699.851 117.898 699.851C116.926 699.851 116.138 700.634 116.138 701.6Z" fill="#DAA520"/>
<path d="M103.849 701.6C103.849 702.566 104.637 703.35 105.608 703.35C106.58 703.35 107.368 702.566 107.368 701.6C107.368 700.634 106.58 699.851 105.608 699.851C104.637 699.851 103.849 700.634 103.849 701.6Z" fill="#DAA520"/>
<path d="M91.5691 701.6C91.5691 702.566 92.3568 703.35 93.3284 703.35C94.3001 703.35 95.0878 702.566 95.0878 701.6C95.0878 700.634 94.3001 699.851 93.3284 699.851C92.3568 699.851 91.5691 700.634 91.5691 701.6Z" fill="#DAA520"/>
<path d="M79.2799 701.6C79.2799 702.566 80.0676 703.35 81.0393 703.35C82.0109 703.35 82.7986 702.566 82.7986 701.6C82.7986 700.634 82.0109 699.851 81.0393 699.851C80.0676 699.851 79.2799 700.634 79.2799 701.6Z" fill="#DAA520"/>
<path d="M66.9999 701.6C66.9999 702.566 67.7876 703.35 68.7592 703.35C69.7309 703.35 70.5186 702.566 70.5186 701.6C70.5186 700.634 69.7309 699.851 68.7592 699.851C67.7876 699.851 66.9999 700.634 66.9999 701.6Z" fill="#DAA520"/>
<path d="M51.8872 407H37.1722C36.5422 407 36.2272 406.685 36.2272 406.055V379.01C36.2272 378.38 36.5422 378.065 37.1722 378.065H51.8872C52.4872 378.065 52.7872 378.38 52.7872 379.01V382.07C52.7872 382.7 52.4872 383.015 51.8872 383.015H42.4822C42.1222 383.015 41.9422 383.18 41.9422 383.51V389.36C41.9422 389.69 42.1222 389.855 42.4822 389.855H50.1772C50.8072 389.855 51.1222 390.17 51.1222 390.8V393.86C51.1222 394.49 50.8072 394.805 50.1772 394.805H42.4822C42.1222 394.805 41.9422 394.97 41.9422 395.3V401.555C41.9422 401.885 42.1222 402.05 42.4822 402.05H51.8872C52.4872 402.05 52.7872 402.365 52.7872 402.995V406.055C52.7872 406.685 52.4872 407 51.8872 407ZM61.0004 407H56.4554C55.6754 407 55.4654 406.685 55.8254 406.055L61.4954 395.3L55.8254 384.995C55.5254 384.365 55.7054 384.05 56.3654 384.05H60.9554C61.6754 384.05 62.1404 384.365 62.3504 384.995L65.1854 391.835H65.3654L67.8404 384.995C68.0504 384.365 68.5154 384.05 69.2355 384.05H73.7354C74.5154 384.05 74.7104 384.365 74.3205 384.995L68.9205 395.3L74.7255 406.055C74.8755 406.325 74.8905 406.55 74.7705 406.73C74.6805 406.91 74.4855 407 74.1854 407H69.5505C68.9205 407 68.4705 406.685 68.2005 406.055L65.3654 399.17H65.1854L62.3504 406.055C62.1404 406.685 61.6904 407 61.0004 407ZM82.8666 413.12H79.0416C78.4116 413.12 78.0966 412.82 78.0966 412.22V384.995C78.0966 384.365 78.4116 384.05 79.0416 384.05H82.8666C83.4966 384.05 83.8116 384.365 83.8116 384.995V386.48H83.9916C84.3216 385.67 84.9066 385.07 85.7466 384.68C86.5866 384.26 87.4716 384.05 88.4016 384.05H90.2466C92.5566 384.05 94.2966 384.68 95.4666 385.94C96.6666 387.2 97.2666 389.015 97.2666 391.385V399.665C97.2666 402.035 96.6666 403.85 95.4666 405.11C94.2966 406.37 92.5566 407 90.2466 407H88.4016C87.4716 407 86.5866 406.805 85.7466 406.415C84.9066 405.995 84.3216 405.38 83.9916 404.57H83.8116V412.22C83.8116 412.82 83.4966 413.12 82.8666 413.12ZM86.9166 402.05H88.8966C89.8566 402.05 90.5316 401.855 90.9216 401.465C91.3416 401.045 91.5516 400.355 91.5516 399.395V391.655C91.5516 390.695 91.3416 390.02 90.9216 389.63C90.5316 389.21 89.8566 389 88.8966 389H86.9166C84.8466 389 83.8116 390.14 83.8116 392.42V398.63C83.8116 400.91 84.8466 402.05 86.9166 402.05ZM118.703 407H108.758C106.388 407 104.558 406.37 103.268 405.11C101.978 403.85 101.333 402.035 101.333 399.665V391.385C101.333 389.015 101.978 387.2 103.268 385.94C104.558 384.68 106.388 384.05 108.758 384.05H112.313C114.683 384.05 116.513 384.68 117.803 385.94C119.093 387.2 119.738 389.015 119.738 391.385V397.1C119.738 397.73 119.423 398.045 118.793 398.045H107.498C107.138 398.045 106.958 398.21 106.958 398.54V399.53C106.958 400.46 107.153 401.135 107.543 401.555C107.963 401.945 108.653 402.14 109.613 402.14H118.703C119.333 402.14 119.648 402.47 119.648 403.13V406.1C119.648 406.43 119.573 406.67 119.423 406.82C119.303 406.94 119.063 407 118.703 407ZM107.498 394.22H113.618C113.948 394.22 114.113 394.055 114.113 393.725V391.565C114.113 390.605 113.918 389.93 113.528 389.54C113.138 389.15 112.463 388.955 111.503 388.955H109.613C108.653 388.955 107.978 389.15 107.588 389.54C107.198 389.93 107.003 390.605 107.003 391.565V393.725C107.003 394.055 107.168 394.22 107.498 394.22ZM128.789 407H124.964C124.334 407 124.019 406.685 124.019 406.055V384.995C124.019 384.365 124.334 384.05 124.964 384.05H128.789C129.419 384.05 129.734 384.365 129.734 384.995V386.525H129.914C130.244 385.715 130.829 385.1 131.669 384.68C132.509 384.26 133.394 384.05 134.324 384.05H135.944C136.544 384.05 136.844 384.365 136.844 384.995V388.1C136.844 388.46 136.769 388.715 136.619 388.865C136.499 388.985 136.274 389.03 135.944 389H132.839C130.769 389 129.734 390.17 129.734 392.51V406.055C129.734 406.685 129.419 407 128.789 407ZM139.933 380.18V376.265C139.933 375.665 140.233 375.365 140.833 375.365H144.748C145.348 375.365 145.648 375.65 145.648 376.22V380.18C145.648 380.78 145.348 381.08 144.748 381.08H140.833C140.233 381.08 139.933 380.78 139.933 380.18ZM139.933 406.055V384.995C139.933 384.365 140.233 384.05 140.833 384.05H144.703C145.333 384.05 145.648 384.365 145.648 384.995V406.055C145.648 406.445 145.573 406.7 145.423 406.82C145.303 406.94 145.078 407 144.748 407H140.878C140.248 407 139.933 406.685 139.933 406.055ZM155.596 407H151.771C151.141 407 150.826 406.685 150.826 406.055V384.995C150.826 384.365 151.141 384.05 151.771 384.05H155.596C156.226 384.05 156.541 384.365 156.541 384.995V386.48H156.721C157.081 385.76 157.681 385.175 158.521 384.725C159.391 384.275 160.381 384.05 161.491 384.05H162.751C165.361 384.05 167.236 385.01 168.376 386.93C169.396 385.01 171.151 384.05 173.641 384.05H174.946C177.256 384.05 178.996 384.68 180.166 385.94C181.366 387.2 181.966 389.015 181.966 391.385V406.055C181.966 406.685 181.651 407 181.021 407H177.196C176.566 407 176.251 406.685 176.251 406.055V391.655C176.251 390.695 176.056 390.02 175.666 389.63C175.276 389.21 174.601 389 173.641 389H172.516C170.446 389 169.411 390.155 169.411 392.465V406.055C169.411 406.685 169.081 407 168.421 407H164.641C164.011 407 163.696 406.685 163.696 406.055V391.655C163.696 390.695 163.486 390.02 163.066 389.63C162.676 389.21 162.001 389 161.041 389H159.646C157.576 389 156.541 390.14 156.541 392.42V406.055C156.541 406.685 156.226 407 155.596 407ZM203.649 407H193.704C191.334 407 189.504 406.37 188.214 405.11C186.924 403.85 186.279 402.035 186.279 399.665V391.385C186.279 389.015 186.924 387.2 188.214 385.94C189.504 384.68 191.334 384.05 193.704 384.05H197.259C199.629 384.05 201.459 384.68 202.749 385.94C204.039 387.2 204.684 389.015 204.684 391.385V397.1C204.684 397.73 204.369 398.045 203.739 398.045H192.444C192.084 398.045 191.904 398.21 191.904 398.54V399.53C191.904 400.46 192.099 401.135 192.489 401.555C192.909 401.945 193.599 402.14 194.559 402.14H203.649C204.279 402.14 204.594 402.47 204.594 403.13V406.1C204.594 406.43 204.519 406.67 204.369 406.82C204.249 406.94 204.009 407 203.649 407ZM192.444 394.22H198.564C198.894 394.22 199.059 394.055 199.059 393.725V391.565C199.059 390.605 198.864 389.93 198.474 389.54C198.084 389.15 197.409 388.955 196.449 388.955H194.559C193.599 388.955 192.924 389.15 192.534 389.54C192.144 389.93 191.949 390.605 191.949 391.565V393.725C191.949 394.055 192.114 394.22 192.444 394.22ZM213.736 407H209.911C209.281 407 208.966 406.685 208.966 406.055V384.995C208.966 384.365 209.281 384.05 209.911 384.05H213.736C214.366 384.05 214.681 384.365 214.681 384.995V386.48H214.861C215.521 384.86 216.991 384.05 219.271 384.05H220.711C225.421 384.05 227.776 386.495 227.776 391.385V406.055C227.776 406.685 227.446 407 226.786 407H223.006C222.376 407 222.061 406.685 222.061 406.055V391.655C222.061 390.695 221.851 390.02 221.431 389.63C221.041 389.21 220.366 389 219.406 389H217.786C215.716 389 214.681 390.14 214.681 392.42V406.055C214.681 406.685 214.366 407 213.736 407ZM233.015 389H231.215C230.855 389 230.6 388.94 230.45 388.82C230.33 388.7 230.27 388.46 230.27 388.1V384.995C230.27 384.365 230.585 384.05 231.215 384.05H233.015C233.345 384.05 233.51 383.885 233.51 383.555V379.28C233.51 378.65 233.84 378.335 234.5 378.335H238.28C238.91 378.335 239.225 378.65 239.225 379.28V383.555C239.225 383.885 239.405 384.05 239.765 384.05H243.275C243.905 384.05 244.22 384.365 244.22 384.995V388.1C244.22 388.43 244.145 388.67 243.995 388.82C243.875 388.94 243.635 389 243.275 389H239.765C239.405 389 239.225 389.165 239.225 389.495V399.44C239.225 400.37 239.435 401.045 239.855 401.465C240.275 401.855 240.965 402.05 241.925 402.05H243.725C244.355 402.05 244.67 402.365 244.67 402.995V406.1C244.67 406.43 244.595 406.67 244.445 406.82C244.325 406.94 244.085 407 243.725 407H240.98C238.61 407 236.765 406.37 235.445 405.11C234.155 403.85 233.51 402.05 233.51 399.71V389.495C233.51 389.165 233.345 389 233.015 389ZM259.365 407H255.36C252.99 407 251.16 406.37 249.87 405.11C248.58 403.85 247.935 402.035 247.935 399.665V391.385C247.935 389.015 248.58 387.2 249.87 385.94C251.16 384.68 252.99 384.05 255.36 384.05H259.365C261.705 384.05 263.52 384.695 264.81 385.985C266.13 387.245 266.79 389.045 266.79 391.385V399.665C266.79 402.005 266.13 403.82 264.81 405.11C263.52 406.37 261.705 407 259.365 407ZM256.215 402.095H258.51C259.47 402.095 260.145 401.9 260.535 401.51C260.955 401.12 261.165 400.445 261.165 399.485V391.565C261.165 390.605 260.955 389.93 260.535 389.54C260.145 389.15 259.47 388.955 258.51 388.955H256.215C255.255 388.955 254.58 389.15 254.19 389.54C253.8 389.93 253.605 390.605 253.605 391.565V399.485C253.605 400.445 253.8 401.12 254.19 401.51C254.58 401.9 255.255 402.095 256.215 402.095ZM271.775 389H269.975C269.615 389 269.36 388.94 269.21 388.82C269.09 388.7 269.03 388.46 269.03 388.1V384.995C269.03 384.365 269.345 384.05 269.975 384.05H271.775C272.105 384.05 272.27 383.885 272.27 383.555V379.28C272.27 378.65 272.6 378.335 273.26 378.335H277.04C277.67 378.335 277.985 378.65 277.985 379.28V383.555C277.985 383.885 278.165 384.05 278.525 384.05H282.035C282.665 384.05 282.98 384.365 282.98 384.995V388.1C282.98 388.43 282.905 388.67 282.755 388.82C282.635 388.94 282.395 389 282.035 389H278.525C278.165 389 277.985 389.165 277.985 389.495V399.44C277.985 400.37 278.195 401.045 278.615 401.465C279.035 401.855 279.725 402.05 280.685 402.05H282.485C283.115 402.05 283.43 402.365 283.43 402.995V406.1C283.43 406.43 283.355 406.67 283.205 406.82C283.085 406.94 282.845 407 282.485 407H279.74C277.37 407 275.525 406.37 274.205 405.11C272.915 403.85 272.27 402.05 272.27 399.71V389.495C272.27 389.165 272.105 389 271.775 389ZM304.064 407H294.119C291.749 407 289.919 406.37 288.629 405.11C287.339 403.85 286.694 402.035 286.694 399.665V391.385C286.694 389.015 287.339 387.2 288.629 385.94C289.919 384.68 291.749 384.05 294.119 384.05H297.674C300.044 384.05 301.874 384.68 303.164 385.94C304.454 387.2 305.099 389.015 305.099 391.385V397.1C305.099 397.73 304.784 398.045 304.154 398.045H292.859C292.499 398.045 292.319 398.21 292.319 398.54V399.53C292.319 400.46 292.514 401.135 292.904 401.555C293.324 401.945 294.014 402.14 294.974 402.14H304.064C304.694 402.14 305.009 402.47 305.009 403.13V406.1C305.009 406.43 304.934 406.67 304.784 406.82C304.664 406.94 304.424 407 304.064 407ZM292.859 394.22H298.979C299.309 394.22 299.474 394.055 299.474 393.725V391.565C299.474 390.605 299.279 389.93 298.889 389.54C298.499 389.15 297.824 388.955 296.864 388.955H294.974C294.014 388.955 293.339 389.15 292.949 389.54C292.559 389.93 292.364 390.605 292.364 391.565V393.725C292.364 394.055 292.529 394.22 292.859 394.22ZM324.006 402.995V406.1C324.006 406.43 323.931 406.67 323.781 406.82C323.661 406.94 323.421 407 323.061 407H316.356C313.986 407 312.156 406.37 310.866 405.11C309.576 403.85 308.931 402.035 308.931 399.665V391.385C308.931 389.015 309.576 387.2 310.866 385.94C312.156 384.68 313.986 384.05 316.356 384.05H323.061C323.691 384.05 324.006 384.365 324.006 384.995V388.1C324.006 388.43 323.931 388.67 323.781 388.82C323.661 388.94 323.421 389 323.061 389H317.256C316.326 389 315.651 389.21 315.231 389.63C314.841 390.02 314.646 390.695 314.646 391.655V399.395C314.646 400.355 314.841 401.045 315.231 401.465C315.651 401.855 316.326 402.05 317.256 402.05H323.061C323.691 402.05 324.006 402.365 324.006 402.995ZM335.937 407H334.857C332.487 407 330.657 406.37 329.367 405.11C328.077 403.85 327.432 402.035 327.432 399.665V391.385C327.432 389.015 328.077 387.2 329.367 385.94C330.657 384.68 332.487 384.05 334.857 384.05H345.252C345.912 384.05 346.242 384.365 346.242 384.995V406.055C346.242 406.685 345.912 407 345.252 407H341.472C340.842 407 340.527 406.685 340.527 406.055V404.57H340.347C340.017 405.38 339.432 405.995 338.592 406.415C337.752 406.805 336.867 407 335.937 407ZM340.527 398.63V389.495C340.527 389.165 340.347 389 339.987 389H335.757C334.797 389 334.122 389.21 333.732 389.63C333.342 390.02 333.147 390.695 333.147 391.655V399.395C333.147 400.355 333.342 401.045 333.732 401.465C334.122 401.855 334.797 402.05 335.757 402.05H337.422C339.492 402.05 340.527 400.91 340.527 398.63Z" fill="white"/>
<path d="M40.2328 436L41.3301 432.911H45.7406L46.8379 436H48.2229L44.2172 425.091H42.8536L38.8479 436H40.2328ZM41.7456 431.739L43.4928 426.817H43.578L45.3252 431.739H41.7456ZM56.5911 439.068V427.818H55.3766V429.118H55.2275C54.9505 428.692 54.4604 427.712 52.8624 427.712C50.7957 427.712 49.3681 429.352 49.3681 431.93C49.3681 434.53 50.7957 436.17 52.8411 436.17C54.4178 436.17 54.9505 435.19 55.2275 434.743H55.334V439.068H56.5911ZM55.3553 431.909C55.3553 433.763 54.5244 435.041 53.0116 435.041C51.4349 435.041 50.6252 433.656 50.6252 431.909C50.6252 430.183 51.4136 428.841 53.0116 428.841C54.5457 428.841 55.3553 430.077 55.3553 431.909ZM64.0485 432.655C64.0485 434.189 62.8766 434.892 61.9391 434.892C60.8951 434.892 60.1494 434.125 60.1494 432.932V427.818H58.8923V433.017C58.8923 435.105 60.0002 436.107 61.5343 436.107C62.7701 436.107 63.5798 435.446 63.9633 434.615H64.0485V436H65.3056V427.818H64.0485V432.655ZM67.6081 436H68.8652V427.818H67.6081V436ZM68.2473 426.455C68.7373 426.455 69.1422 426.071 69.1422 425.602C69.1422 425.134 68.7373 424.75 68.2473 424.75C67.7572 424.75 67.3524 425.134 67.3524 425.602C67.3524 426.071 67.7572 426.455 68.2473 426.455ZM82.0767 427.818H80.7131L78.4546 434.338H78.3694L76.1108 427.818H74.7472L77.7728 436H79.0512L82.0767 427.818ZM86.7669 436.17C88.9828 436.17 90.4743 434.487 90.4743 431.952C90.4743 429.395 88.9828 427.712 86.7669 427.712C84.551 427.712 83.0595 429.395 83.0595 431.952C83.0595 434.487 84.551 436.17 86.7669 436.17ZM86.7669 435.041C85.0837 435.041 84.3166 433.592 84.3166 431.952C84.3166 430.311 85.0837 428.841 86.7669 428.841C88.4502 428.841 89.2172 430.311 89.2172 431.952C89.2172 433.592 88.4502 435.041 86.7669 435.041ZM95.7171 436.17C97.5282 436.17 98.7214 435.062 98.9344 433.614H97.6773C97.443 434.509 96.6972 435.041 95.7171 435.041C94.2256 435.041 93.2668 433.805 93.2668 431.909C93.2668 430.055 94.2469 428.841 95.7171 428.841C96.8251 428.841 97.4856 429.523 97.6773 430.268H98.9344C98.7214 428.734 97.4217 427.712 95.6958 427.712C93.4799 427.712 92.0097 429.459 92.0097 431.952C92.0097 434.402 93.416 436.17 95.7171 436.17ZM104.203 436.17C105.864 436.17 107.079 435.339 107.462 434.104L106.248 433.763C105.928 434.615 105.188 435.041 104.203 435.041C102.727 435.041 101.71 434.088 101.651 432.335H107.59V431.803C107.59 428.756 105.779 427.712 104.075 427.712C101.859 427.712 100.389 429.459 100.389 431.973C100.389 434.487 101.837 436.17 104.203 436.17ZM101.651 431.249C101.736 429.975 102.636 428.841 104.075 428.841C105.438 428.841 106.312 429.864 106.312 431.249H101.651ZM102.903 426.838L104.011 425.347L105.119 426.838H106.312V426.753L104.586 424.537H103.436L101.71 426.753V426.838H102.903ZM116.129 436.192C117.557 436.192 118.302 435.425 118.558 434.892H118.622V436H119.879V430.609C119.879 428.01 117.898 427.712 116.853 427.712C115.618 427.712 114.211 428.138 113.572 429.629L114.765 430.055C115.042 429.459 115.698 428.82 116.896 428.82C118.052 428.82 118.622 429.432 118.622 430.482V430.524C118.622 431.131 118.004 431.078 116.513 431.27C114.994 431.467 113.338 431.803 113.338 433.678C113.338 435.276 114.574 436.192 116.129 436.192ZM116.321 435.062C115.319 435.062 114.595 434.615 114.595 433.741C114.595 432.783 115.469 432.484 116.449 432.357C116.981 432.293 118.409 432.143 118.622 431.888V433.038C118.622 434.061 117.812 435.062 116.321 435.062ZM122.174 439.068H123.431V434.743H123.537C123.814 435.19 124.347 436.17 125.924 436.17C127.969 436.17 129.397 434.53 129.397 431.93C129.397 429.352 127.969 427.712 125.902 427.712C124.304 427.712 123.814 428.692 123.537 429.118H123.388V427.818H122.174V439.068ZM123.409 431.909C123.409 430.077 124.219 428.841 125.753 428.841C127.351 428.841 128.139 430.183 128.139 431.909C128.139 433.656 127.33 435.041 125.753 435.041C124.24 435.041 123.409 433.763 123.409 431.909ZM131.314 436H132.571V430.822C132.571 429.714 133.445 428.905 134.638 428.905C134.974 428.905 135.32 428.969 135.405 428.99V427.712C135.261 427.701 134.931 427.69 134.745 427.69C133.764 427.69 132.912 428.244 132.614 429.054H132.529V427.818H131.314V436ZM140.077 436.17C141.739 436.17 142.953 435.339 143.337 434.104L142.122 433.763C141.802 434.615 141.062 435.041 140.077 435.041C138.601 435.041 137.584 434.088 137.525 432.335H143.464V431.803C143.464 428.756 141.653 427.712 139.949 427.712C137.733 427.712 136.263 429.459 136.263 431.973C136.263 434.487 137.712 436.17 140.077 436.17ZM137.525 431.249C137.61 429.975 138.511 428.841 139.949 428.841C141.312 428.841 142.186 429.864 142.186 431.249H137.525ZM146.634 431.078C146.634 429.651 147.518 428.841 148.722 428.841C149.888 428.841 150.597 429.603 150.597 430.886V436H151.854V430.801C151.854 428.713 150.741 427.712 149.084 427.712C147.848 427.712 147.081 428.266 146.698 429.097H146.591V427.818H145.377V436H146.634V431.078ZM157.241 436.17C158.817 436.17 159.35 435.19 159.627 434.743H159.776V436H160.991V425.091H159.733V429.118H159.627C159.35 428.692 158.86 427.712 157.262 427.712C155.195 427.712 153.768 429.352 153.768 431.93C153.768 434.53 155.195 436.17 157.241 436.17ZM157.411 435.041C155.834 435.041 155.025 433.656 155.025 431.909C155.025 430.183 155.813 428.841 157.411 428.841C158.945 428.841 159.755 430.077 159.755 431.909C159.755 433.763 158.924 435.041 157.411 435.041ZM166.898 436.17C168.56 436.17 169.774 435.339 170.158 434.104L168.943 433.763C168.624 434.615 167.883 435.041 166.898 435.041C165.422 435.041 164.405 434.088 164.346 432.335H170.286V431.803C170.286 428.756 168.475 427.712 166.77 427.712C164.554 427.712 163.084 429.459 163.084 431.973C163.084 434.487 164.533 436.17 166.898 436.17ZM164.346 431.249C164.432 429.975 165.332 428.841 166.77 428.841C168.134 428.841 169.007 429.864 169.007 431.249H164.346ZM179.741 436.17C181.552 436.17 182.745 435.062 182.958 433.614H181.701C181.466 434.509 180.721 435.041 179.741 435.041C178.249 435.041 177.29 433.805 177.29 431.909C177.29 430.055 178.27 428.841 179.741 428.841C180.848 428.841 181.509 429.523 181.701 430.268H182.958C182.745 428.734 181.445 427.712 179.719 427.712C177.503 427.712 176.033 429.459 176.033 431.952C176.033 434.402 177.439 436.17 179.741 436.17ZM188.119 436.17C190.335 436.17 191.827 434.487 191.827 431.952C191.827 429.395 190.335 427.712 188.119 427.712C185.904 427.712 184.412 429.395 184.412 431.952C184.412 434.487 185.904 436.17 188.119 436.17ZM188.119 435.041C186.436 435.041 185.669 433.592 185.669 431.952C185.669 430.311 186.436 428.841 188.119 428.841C189.803 428.841 190.57 430.311 190.57 431.952C190.57 433.592 189.803 435.041 188.119 435.041ZM193.746 436H195.003V430.886C195.003 429.688 195.876 428.841 196.857 428.841C197.81 428.841 198.476 429.464 198.476 430.396V436H199.754V430.673C199.754 429.619 200.415 428.841 201.565 428.841C202.46 428.841 203.227 429.315 203.227 430.524V436H204.484V430.524C204.484 428.601 203.451 427.712 201.992 427.712C200.82 427.712 199.962 428.25 199.541 429.097H199.456C199.051 428.223 198.337 427.712 197.261 427.712C196.196 427.712 195.408 428.223 195.067 429.097H194.96V427.818H193.746V436ZM213.409 436.192C214.837 436.192 215.583 435.425 215.838 434.892H215.902V436H217.159V430.609C217.159 428.01 215.178 427.712 214.134 427.712C212.898 427.712 211.492 428.138 210.852 429.629L212.046 430.055C212.323 429.459 212.978 428.82 214.176 428.82C215.332 428.82 215.902 429.432 215.902 430.482V430.524C215.902 431.131 215.284 431.078 213.793 431.27C212.275 431.467 210.618 431.803 210.618 433.678C210.618 435.276 211.854 436.192 213.409 436.192ZM213.601 435.062C212.6 435.062 211.875 434.615 211.875 433.741C211.875 432.783 212.749 432.484 213.729 432.357C214.262 432.293 215.689 432.143 215.902 431.888V433.038C215.902 434.061 215.093 435.062 213.601 435.062ZM223.673 439.068H224.93V434.743H225.036C225.313 435.19 225.846 436.17 227.423 436.17C229.468 436.17 230.896 434.53 230.896 431.93C230.896 429.352 229.468 427.712 227.401 427.712C225.803 427.712 225.313 428.692 225.036 429.118H224.887V427.818H223.673V439.068ZM224.908 431.909C224.908 430.077 225.718 428.841 227.252 428.841C228.85 428.841 229.638 430.183 229.638 431.909C229.638 433.656 228.829 435.041 227.252 435.041C225.739 435.041 224.908 433.763 224.908 431.909ZM232.813 436H234.07V430.822C234.07 429.714 234.944 428.905 236.137 428.905C236.473 428.905 236.819 428.969 236.904 428.99V427.712C236.76 427.701 236.43 427.69 236.244 427.69C235.263 427.69 234.411 428.244 234.113 429.054H234.028V427.818H232.813V436ZM240.802 436.192C242.229 436.192 242.975 435.425 243.231 434.892H243.295V436H244.552V430.609C244.552 428.01 242.57 427.712 241.526 427.712C240.291 427.712 238.884 428.138 238.245 429.629L239.438 430.055C239.715 429.459 240.37 428.82 241.569 428.82C242.725 428.82 243.295 429.432 243.295 430.482V430.524C243.295 431.131 242.677 431.078 241.185 431.27C239.667 431.467 238.011 431.803 238.011 433.678C238.011 435.276 239.246 436.192 240.802 436.192ZM240.994 435.062C239.992 435.062 239.268 434.615 239.268 433.741C239.268 432.783 240.141 432.484 241.121 432.357C241.654 432.293 243.082 432.143 243.295 431.888V433.038C243.295 434.061 242.485 435.062 240.994 435.062ZM241.036 426.71H242.144L243.806 424.239H242.336L241.036 426.71ZM250.405 427.818H248.657V425.858H247.4V427.818H246.165V428.884H247.4V433.997C247.4 435.425 248.551 436.107 249.616 436.107C250.085 436.107 250.383 436.021 250.554 435.957L250.298 434.828C250.192 434.849 250.021 434.892 249.744 434.892C249.19 434.892 248.657 434.722 248.657 433.656V428.884H250.405V427.818ZM252.296 436H253.553V427.818H252.296V436ZM252.935 426.455C253.425 426.455 253.83 426.071 253.83 425.602C253.83 425.134 253.425 424.75 252.935 424.75C252.445 424.75 252.04 425.134 252.04 425.602C252.04 426.071 252.445 426.455 252.935 426.455ZM259.179 436.17C260.99 436.17 262.183 435.062 262.396 433.614H261.139C260.905 434.509 260.159 435.041 259.179 435.041C257.688 435.041 256.729 433.805 256.729 431.909C256.729 430.055 257.709 428.841 259.179 428.841C260.287 428.841 260.947 429.523 261.139 430.268H262.396C262.183 428.734 260.884 427.712 259.158 427.712C256.942 427.712 255.472 429.459 255.472 431.952C255.472 434.402 256.878 436.17 259.179 436.17ZM266.642 436.192C268.069 436.192 268.815 435.425 269.071 434.892H269.135V436H270.392V430.609C270.392 428.01 268.41 427.712 267.366 427.712C266.13 427.712 264.724 428.138 264.085 429.629L265.278 430.055C265.555 429.459 266.21 428.82 267.409 428.82C268.565 428.82 269.135 429.432 269.135 430.482V430.524C269.135 431.131 268.517 431.078 267.025 431.27C265.507 431.467 263.851 431.803 263.851 433.678C263.851 435.276 265.086 436.192 266.642 436.192ZM266.833 435.062C265.832 435.062 265.108 434.615 265.108 433.741C265.108 432.783 265.981 432.484 266.961 432.357C267.494 432.293 268.922 432.143 269.135 431.888V433.038C269.135 434.061 268.325 435.062 266.833 435.062Z" fill="#DDE3F0"/>
</svg>
